<?xml version="1.0" standalone="no"?><!DOCTYPE svg PUBLIC "-//W3C//DTD SVG 1.1//EN" "http://www.w3.org/Graphics/SVG/1.1/DTD/svg11.dtd"><svg t="1715248795043" class="icon" viewBox="0 0 1024 1024" version="1.1" xmlns="http://www.w3.org/2000/svg" p-id="17562" xmlns:xlink="http://www.w3.org/1999/xlink" width="32" height="32"><path d="M812.03125 424.625c0-165.65625-134.34375-300-300-300H352C186.34375 124.625 52 258.875 52 424.625c0 107.4375 56.71875 201.46875 141.5625 254.4375l18.375 165.5625 133.6875-120.28125c2.15625 0 4.21875 0.28125 6.28125 0.28125h160.03125c165.75 0 300.09375-134.34375 300.09375-300z m-170.0625-40.03125c27.5625 0 49.96875 22.40625 49.96875 49.96875s-22.40625 49.96875-49.96875 49.96875c-27.65625 0-49.96875-22.40625-49.96875-49.96875s22.40625-49.96875 49.96875-49.96875zM242.03125 484.625c-27.5625 0-49.96875-22.40625-49.96875-49.96875s22.40625-49.96875 49.96875-49.96875c27.65625 0 49.96875 22.40625 49.96875 49.96875s-22.40625 49.96875-49.96875 49.96875z m199.96875 0c-27.65625 0-49.96875-22.40625-49.96875-49.96875s22.40625-49.96875 49.96875-49.96875 49.96875 22.40625 49.96875 49.96875-22.3125 49.96875-49.96875 49.96875z m570 79.96875c0-105.65625-63.09375-196.40625-153.65625-237.09375 8.625 30.9375 13.59375 63.375 13.59375 97.125 0 198.84375-161.15625 360-360 360h-18.09375c40.03125 25.21875 87.28125 40.03125 138.09375 40.03125h87.28125l168.1875 101.34375-10.6875-133.21875c80.625-44.25 135.28125-129.84375 135.28125-228.1875z" fill="#707070" p-id="17563"></path></svg>