<?xml version="1.0" standalone="no"?><!DOCTYPE svg PUBLIC "-//W3C//DTD SVG 1.1//EN" "http://www.w3.org/Graphics/SVG/1.1/DTD/svg11.dtd"><svg t="1711549711815" class="icon" viewBox="0 0 1024 1024" version="1.1" xmlns="http://www.w3.org/2000/svg" p-id="12528" width="48" height="48" xmlns:xlink="http://www.w3.org/1999/xlink"><path d="M613.64419 80.822857L866.011429 108.032a73.142857 73.142857 0 0 1 64.902095 64.877714l27.184762 252.391619a73.142857 73.142857 0 0 1-20.992 59.538286L512.707048 909.238857a73.142857 73.142857 0 0 1-103.448381 0L129.706667 629.662476a73.142857 73.142857 0 0 1 0-103.424L554.081524 101.839238a73.142857 73.142857 0 0 1 59.562666-21.016381z m-7.826285 72.728381L181.394286 577.950476l279.576381 279.576381 424.399238-424.399238-27.209143-252.367238-252.367238-27.209143zM674.279619 243.809524a109.714286 109.714286 0 1 1 0 219.428571 109.714286 109.714286 0 0 1 0-219.428571z m0 73.142857a36.571429 36.571429 0 1 0 0 73.142857 36.571429 36.571429 0 0 0 0-73.142857z" p-id="12529" fill="#515151"></path></svg>