<?xml version="1.0" standalone="no"?><!DOCTYPE svg PUBLIC "-//W3C//DTD SVG 1.1//EN" "http://www.w3.org/Graphics/SVG/1.1/DTD/svg11.dtd"><svg t="1714833873835" class="icon" preserveAspectRatio="none" viewBox="0 0 1024 1024" version="1.1" xmlns="http://www.w3.org/2000/svg" p-id="30489" width="64" height="32" xmlns:xlink="http://www.w3.org/1999/xlink"><path d="M571.379389 279.777031c-93.779873 0-170.099073 75.882248-170.099073 169.170934 0 93.670379 76.3192 169.853479 170.099073 169.85348s170.099073-76.1831 170.099073-169.85348c0.001023-93.288686-76.3192-169.170934-170.099073-169.170934z" fill="#FC84A1" p-id="30490"></path><path d="M734.499513 62.933331h-447.696461c-123.627668 0-223.848231 100.220562-223.848231 223.848231v447.696462c0 123.627668 100.220562 223.848231 223.848231 223.848231h447.696461c123.627668 0 223.848231-100.220562 223.848231-223.848231v-447.696462c0-123.627668-100.220562-223.848231-223.848231-223.848231zM571.379389 681.731706c-50.989301 0-100.583836-16.804734-141.025921-47.600111l-50.716078 51.15303 64.515362 65.63486c5.519714 4.919033 9.017374 12.56927 9.262968 20.958334 0.218988 8.607028-3.170203 17.077957-9.344832 23.225981-5.055133 5.601578-12.706393 9.099239-21.040199 9.318226h-0.819668c-8.3072 0-16.422018-3.360538-22.406313-9.290597l-65.006549-65.580624-64.296375 64.815191c-5.027503 5.629207-12.678764 9.126868-21.067828 9.372461-8.634658-0.218988-17.077957-3.196809-23.225981-9.344832-5.601578-5.000897-9.099239-12.651135-9.344832-21.040199-0.218988-8.607028 3.170203-17.077957 9.344832-23.22598l64.405869-64.952315-63.804165-64.924685c-5.547343-4.973268-9.045003-12.624529-9.262968-21.012569-0.218988-8.580422 3.196809-17.023722 9.344833-23.171746 5.055133-5.629207 12.706393-9.126868 21.095457-9.344832 8.251941-0.027629 17.051351 3.170203 23.199375 9.344832l64.241116 64.186881 50.66082-51.125401c-30.850635-40.960901-47.081295-89.162716-47.081295-140.178622 0-127.991046 104.245226-232.127801 232.373395-232.127802 128.510886 0 233.084593 104.136755 233.084593 232.127802-0.001023 128.34511-104.57473 232.782717-233.085616 232.782717z" fill="#FC84A1" p-id="30491"></path></svg>