<?xml version="1.0" standalone="no"?><!DOCTYPE svg PUBLIC "-//W3C//DTD SVG 1.1//EN" "http://www.w3.org/Graphics/SVG/1.1/DTD/svg11.dtd"><svg t="1713025747430" class="icon" viewBox="0 0 1024 1024" version="1.1" xmlns="http://www.w3.org/2000/svg" p-id="6094" width="16" height="16" xmlns:xlink="http://www.w3.org/1999/xlink"><path d="M554.666667 680.021333V768h128a42.666667 42.666667 0 0 1 0 85.333333h-128v128a42.666667 42.666667 0 0 1-85.333334 0v-128h-128a42.666667 42.666667 0 0 1 0-85.333333h128v-87.978667C300.949333 659.029333 170.666667 515.413333 170.666667 341.333333 170.666667 152.810667 323.477333 0 512 0s341.333333 152.810667 341.333333 341.333333c0 174.08-130.282667 317.696-298.666666 338.688zM256 341.333333c0 141.376 114.624 256 256 256s256-114.624 256-256S653.376 85.333333 512 85.333333 256 199.957333 256 341.333333z" fill="#2c2c2c" p-id="6095"></path></svg>