<?xml version="1.0" standalone="no"?><!DOCTYPE svg PUBLIC "-//W3C//DTD SVG 1.1//EN" "http://www.w3.org/Graphics/SVG/1.1/DTD/svg11.dtd"><svg t="1713025446005" class="icon" viewBox="0 0 1024 1024" version="1.1" xmlns="http://www.w3.org/2000/svg" p-id="5288" width="16" height="16" xmlns:xlink="http://www.w3.org/1999/xlink"><path d="M744.727273 651.636364c0-205.661091-166.702545-372.363636-372.363637-372.363637S0 445.975273 0 651.636364s166.702545 372.363636 372.363636 372.363636 372.363636-166.702545 372.363637-372.363636zM93.090909 651.636364c0-154.228364 125.044364-279.272727 279.272727-279.272728s279.272727 125.044364 279.272728 279.272728-125.044364 279.272727-279.272728 279.272727S93.090909 805.864727 93.090909 651.636364z" fill="#2c2c2c" p-id="5289"></path><path d="M857.344 93.090909H698.181818a46.545455 46.545455 0 0 1 0-93.090909h279.272727a46.545455 46.545455 0 0 1 46.545455 46.545455v279.272727a46.545455 46.545455 0 0 1-93.090909 0V166.656L632.110545 465.454545 558.545455 391.889455 857.344 93.090909z" fill="#2c2c2c" p-id="5290"></path></svg>