<?xml version="1.0" standalone="no"?><!DOCTYPE svg PUBLIC "-//W3C//DTD SVG 1.1//EN" "http://www.w3.org/Graphics/SVG/1.1/DTD/svg11.dtd"><svg t="1715247838235" class="icon" viewBox="0 0 1024 1024" version="1.1" xmlns="http://www.w3.org/2000/svg" p-id="15246" xmlns:xlink="http://www.w3.org/1999/xlink" width="32" height="32"><path d="M501.4 1001.6c-234 0-470.8-47.8-470.8-139.2C30.6 817.5 69 758.8 252 734c12-1.5 23.3 6.9 24.9 19 1.6 12.1-6.9 23.3-19 24.9-134.9 18.2-183 55.6-183 84.5 0 33.1 146.5 94.9 426.5 94.9s426.6-61.8 426.6-95c0-51.6-99.3-74.4-182.7-84.5-12.1-1.5-20.8-12.5-19.3-24.6 1.5-12.1 12.4-20.8 24.6-19.3 149.2 17.9 221.7 60 221.7 128.4-0.1 91.5-236.9 139.3-470.9 139.3z" fill="#515151" p-id="15247"></path><path d="M576.7 580.5c106.7-33.3 184.4-135.3 184.4-256.2 0-147.8-116.3-267.7-259.7-267.7-143.4 0-259.7 119.8-259.7 267.7 0 120.8 77.7 222.9 184.4 256.2-75.6 42.5-126.6 148.3-126.6 278.9h44.3c0-145.3 67.8-254.9 157.6-254.9S659 714 659 859.4h44.3c0-130.7-51-236.5-126.6-278.9zM285.9 324.3c0-123.2 96.6-223.4 215.4-223.4s215.4 100.2 215.4 223.4-96.6 223.4-215.4 223.4-215.4-100.2-215.4-223.4z" fill="#515151" p-id="15248"></path><path d="M501.4 454c-61.9 0-112.3-44.2-112.3-98.6 0-12.2 9.9-22.1 22.1-22.1s22.1 9.9 22.1 22.1c0 30 30.5 54.4 68 54.4s68-24.4 68-54.4c0-12.2 9.9-22.1 22.1-22.1 12.2 0 22.1 9.9 22.1 22.1 0.2 54.4-50.2 98.6-112.1 98.6z" fill="#515151" p-id="15249"></path></svg>