<?xml version="1.0" standalone="no"?><!DOCTYPE svg PUBLIC "-//W3C//DTD SVG 1.1//EN" "http://www.w3.org/Graphics/SVG/1.1/DTD/svg11.dtd"><svg t="1715246672450" class="icon" viewBox="0 0 1024 1024" version="1.1" xmlns="http://www.w3.org/2000/svg" p-id="13457" xmlns:xlink="http://www.w3.org/1999/xlink" width="32" height="32"><path d="M1024 878c0 30.264-19.624 56.04-58.336 76.584-26.92 14.296-64.32 26.88-111.144 37.392C762.576 1012.624 640.936 1024 512 1024c-128.936 0-250.576-11.376-342.52-32.016-46.832-10.512-84.224-23.104-111.144-37.392C19.624 934.032 0 908.272 0 878c0-30.264 19.624-56.04 58.336-76.584 26.92-14.296 64.32-26.88 111.144-37.392 62.216-13.976 138.04-23.696 220.52-28.52v80.168c-66.008 4.04-127.52 11.352-179.68 21.52-74.16 14.464-110.24 31.024-124.568 40.808 14.32 9.784 50.4 26.344 124.568 40.8C293.632 935.064 400.776 944 512 944c111.224 0 218.368-8.944 301.68-25.2 74.16-14.456 110.24-31.016 124.568-40.8-14.32-9.784-50.4-26.344-124.568-40.8-53.216-10.376-116.16-17.776-183.68-21.768v-80.16c84.032 4.736 161.296 14.552 224.52 28.752 46.832 10.512 84.224 23.096 111.144 37.392 38.712 20.544 58.336 46.32 58.336 76.584z m-704-688C320 85.232 405.232 0 510 0S700 85.232 700 190c0 91.04-64.376 167.328-150 185.752v442.248h-80V375.752C384.376 357.328 320 281.04 320 190z m80 0c0 60.656 49.344 110 110 110S620 250.656 620 190 570.656 80 510 80 400 129.344 400 190z" fill="#d81e06" p-id="13458"></path></svg>