<?xml version="1.0" standalone="no"?><!DOCTYPE svg PUBLIC "-//W3C//DTD SVG 1.1//EN" "http://www.w3.org/Graphics/SVG/1.1/DTD/svg11.dtd"><svg t="1711549588758" class="icon" viewBox="0 0 1024 1024" version="1.1" xmlns="http://www.w3.org/2000/svg" p-id="10106" width="48" height="48" xmlns:xlink="http://www.w3.org/1999/xlink"><path d="M438.857143 536.380952v73.142858H207.238095a36.571429 36.571429 0 0 0 0 73.142857h609.52381a109.714286 109.714286 0 1 1 0 219.428571h-585.142857v-73.142857h585.142857a36.571429 36.571429 0 0 0 0-73.142857h-609.52381a109.714286 109.714286 0 1 1 0-219.428572H438.857143z m219.428571-438.857142c121.173333 0 219.428571 90.794667 219.428572 202.77638l-0.146286 7.14362c-2.706286 67.047619-42.788571 142.384762-108.592762 218.794666a900.096 900.096 0 0 1-77.360762 79.067429l-10.727619 9.557333-5.071238 4.412952-9.557333 8.118858L658.285714 633.904762l-7.972571-6.509714-9.557333-8.118858-10.361905-9.069714a900.096 900.096 0 0 1-82.797715-83.943619c-65.80419-76.434286-105.886476-151.79581-108.592761-218.819047a176.664381 176.664381 0 0 1-0.146286-7.14362c0-110.445714 95.573333-200.289524 214.454857-202.727619L658.285714 97.52381z m0 146.285714a73.142857 73.142857 0 1 0 0 146.285714 73.142857 73.142857 0 0 0 0-146.285714z" p-id="10107" fill="#515151"></path></svg>