<?xml version="1.0" standalone="no"?><!DOCTYPE svg PUBLIC "-//W3C//DTD SVG 1.1//EN" "http://www.w3.org/Graphics/SVG/1.1/DTD/svg11.dtd"><svg t="1715479584935" class="icon" viewBox="0 0 1024 1024" version="1.1" xmlns="http://www.w3.org/2000/svg" p-id="7203" xmlns:xlink="http://www.w3.org/1999/xlink" width="32" height="32"><path d="M0 0h1024v1024H0z" fill="#FFFFFF" p-id="7204"></path><path d="M93.866667 420.437333a20.906667 20.906667 0 0 1-7.68-23.04l3.413333-10.666666a20.906667 20.906667 0 0 1 18.773333-14.933334l272.384-21.76 104.490667-251.008A21.76 21.76 0 0 1 506.965333 85.333333h11.093334a20.906667 20.906667 0 0 1 20.053333 13.653334l104.874667 251.093333 272.384 21.76a20.906667 20.906667 0 0 1 18.773333 14.933333l3.413333 10.666667a20.906667 20.906667 0 0 1-6.4 23.04l-205.44 176.469333 63.104 264.533334a21.76 21.76 0 0 1-8.106666 22.613333l-12.373334 6.826667a21.333333 21.333333 0 0 1-23.850666 0l-231.893334-140.8-233.258666 142.208a21.333333 21.333333 0 0 1-23.850667 0l-9.386667-6.4a21.76 21.76 0 0 1-8.106666-22.613334l61.397333-266.410666z" p-id="7205"></path></svg>