<?xml version="1.0" standalone="no"?><!DOCTYPE svg PUBLIC "-//W3C//DTD SVG 1.1//EN" "http://www.w3.org/Graphics/SVG/1.1/DTD/svg11.dtd"><svg t="1715248997625" class="icon" viewBox="0 0 1024 1024" version="1.1" xmlns="http://www.w3.org/2000/svg" p-id="18594" xmlns:xlink="http://www.w3.org/1999/xlink" width="32" height="32"><path d="M490.666667 676.757333V789.333333a21.333333 21.333333 0 0 0 42.666666 0v-112.576c12.693333-7.381333 21.333333-20.992 21.333334-36.757333a42.666667 42.666667 0 1 0-85.333334 0c0 15.744 8.64 29.354667 21.333334 36.757333z" fill="#8a8a8a" p-id="18595"></path><path d="M768 384v-128c0-141.162667-114.837333-256-256-256S256 114.837333 256 256h42.666667c0-117.632 95.701333-213.333333 213.333333-213.333333s213.333333 95.701333 213.333333 213.333333v128H128v640h768V384h-128z m85.333333 597.333333H170.666667V426.666667h682.666666v554.666666z" fill="#8a8a8a" p-id="18596"></path></svg>