<?xml version="1.0" standalone="no"?><!DOCTYPE svg PUBLIC "-//W3C//DTD SVG 1.1//EN" "http://www.w3.org/Graphics/SVG/1.1/DTD/svg11.dtd"><svg t="1711549559954" class="icon" viewBox="0 0 1024 1024" version="1.1" xmlns="http://www.w3.org/2000/svg" p-id="9420" width="48" height="48" xmlns:xlink="http://www.w3.org/1999/xlink"><path d="M669.013333 596.21181l194.389334 226.791619A77.433905 77.433905 0 0 1 804.59581 950.857143H212.016762a77.433905 77.433905 0 0 1-58.782476-127.853714l194.413714-226.791619a308.345905 308.345905 0 0 0 160.670476 44.860952c58.831238 0 113.834667-16.384 160.670476-44.860952zM508.294095 73.142857c142.57981 0 258.145524 115.565714 258.145524 258.145524 0 142.57981-115.565714 258.145524-258.145524 258.145524-142.57981 0-258.145524-115.565714-258.145524-258.145524C250.148571 188.732952 365.714286 73.142857 508.318476 73.142857z" p-id="9421" fill="#515151"></path></svg>